<svg viewBox="0 0 117 35" width="117" height="35" fill="none" xmlns="http://www.w3.org/2000/svg"><g id="Logo"><path id="Vector" d="M25.2462 17.7684H30.8965C30.8965 17.5043 30.941 17.2402 30.941 17.0321C30.941 14.7151 29.9487 13.4505 28.1827 13.4505C26.4167 13.4505 25.2462 14.9232 25.2462 17.4563V17.7724V17.7684ZM19.9037 4.95886L19.2597 2.0496L18.5711 4.95886H19.9037ZM27.8141 5.57112C27.8141 6.13537 28.045 6.37147 28.5351 6.37147C28.9725 6.37147 29.2358 6.15538 29.2358 5.83924C29.2358 5.60314 29.1305 5.41906 28.9442 5.32702C28.5594 5.14294 27.8789 5.03889 26.9959 4.76278C25.7889 4.38261 25.2259 3.79836 25.2259 2.76191C25.2219 1.30928 26.4086 0.432904 28.5959 0.432904C30.5846 0.432904 31.6337 1.16522 31.6337 2.47379V2.62585H29.1508C29.1184 2.18566 28.9118 1.96957 28.4946 1.96957C28.1098 1.96957 27.8668 2.18566 27.8668 2.46178C27.8668 2.974 28.3893 2.95399 29.3371 3.2101C31.0707 3.6703 31.905 4.14251 31.905 5.49109C31.905 6.33545 31.5324 7.02375 30.8519 7.47595C37.1301 8.46437 40.6134 13.2945 40.6134 21.1939C40.6134 21.8262 40.5689 22.5104 40.5243 23.2508H25.3393V23.9871C25.3393 27.0964 26.3803 28.6771 28.3204 28.6771C29.9932 28.6771 30.8074 27.7807 31.1233 25.5157H40.1598C40.1598 31.4703 36.0486 34.9998 28.3204 34.9998C19.9604 34.9998 14.9905 29.5735 14.9905 21.1459C14.9905 14.443 18.1337 9.64088 23.622 7.95215H20.5761L20.3168 6.77565H18.1418L17.8623 7.95215H15.0189L17.4856 0.556957H21.297L23.6584 7.93615C24.3713 7.72005 25.1206 7.55598 25.9104 7.44794C25.3798 7.06777 25.1085 6.52354 25.1085 5.84324C25.1085 5.75921 25.1085 5.66717 25.1206 5.57513H27.8182L27.8141 5.57112ZM5.62196 7.81609H7.65121V0.556957H13.2651V2.45778H10.4865V3.24612H13.0707V5.14694H10.4865V6.02332H13.3623V7.94815H10.8915V25.5197H14.8933V34.3636H10.8915H0V0.556957H2.90009V5.9713H5.62601V7.81209L5.62196 7.81609ZM58.8119 3.59827C58.8848 3.61028 58.9577 3.61028 59.0184 3.61028C59.6949 3.61028 60.0513 3.32615 60.0513 2.85795C60.0513 2.38975 59.7678 2.20567 59.1319 2.20567C59.0387 2.20567 58.9334 2.20567 58.8078 2.21767V3.60227L58.8119 3.59827ZM60.2417 7.91614C60.1526 7.57199 60.0715 7.24385 60.031 6.92371L59.9581 6.37947C59.8447 5.57913 59.7516 5.25899 59.0711 5.25899C58.9982 5.25899 58.905 5.25899 58.8119 5.27099V7.92014H60.2417V7.91614ZM80.3398 2.53381H78.5373V7.91614H80.9635L75.9491 34.3636H63.0688L60.266 17.0841L57.4631 34.3636H44.3114L38.8474 7.94415H34.153V0.556957H39.7669V2.45778H36.9883V3.24612H39.5725V5.14694H36.9883V6.02332H39.86V7.91614H49.0099L51.5414 25.5678L54.2511 7.91614H55.9847V0.556957H59.8164C61.874 0.556957 62.842 0.95713 62.842 2.43777C62.842 3.32215 62.3438 3.8944 61.3636 4.15451C62.3722 4.31858 62.6112 4.77078 62.7448 5.84324L62.838 6.63558C62.8785 6.95972 62.9716 7.39191 63.0891 7.91614H65.9487L68.6584 25.1436L70.5581 7.91614H75.6292V2.53381H73.8186V0.556957H80.3276V2.53381H80.3398ZM50.3344 8.0602C47.9649 8.0602 46.604 6.68361 46.604 4.25055C46.604 1.8175 47.9689 0.420898 50.4113 0.420898C52.631 0.420898 53.7327 1.38932 53.7448 3.33416H51.1242V3.24212C51.1242 2.60984 50.9257 2.34173 50.4113 2.34173C49.739 2.34173 49.5932 2.94599 49.5932 4.23055C49.5932 5.5151 49.7309 6.14737 50.3992 6.14737C50.8812 6.14737 51.0797 5.85925 51.1242 5.23498H53.8218C53.8096 7.1438 52.6755 8.0602 50.3384 8.0602H50.3344ZM67.8645 0.556957V5.12293C67.8645 5.7512 68.0914 6.05934 68.5288 6.05934C68.9662 6.05934 69.1931 5.73119 69.1931 5.12293V0.556957H72.0162V5.01088C72.0162 7.10779 70.9023 8.07221 68.5288 8.07221C67.2408 8.07221 66.3335 7.8241 65.7097 7.16782C65.1062 6.53154 65.0536 5.86325 65.0536 5.01088V0.556957H67.8645ZM91.0328 0.556957H93.856V3.04603H95.1724V0.556957H97.9955V7.94815H95.1724V5.18296H93.856V7.94815H92.4788V34.3636H81.5873V7.91614H84.1512C82.5432 7.50396 81.644 6.22341 81.644 4.25055C81.644 1.8095 83.009 0.420898 85.4473 0.420898C87.667 0.420898 88.7687 1.38932 88.7808 3.33416H86.1602V3.24212C86.1602 2.60984 85.9617 2.34173 85.4473 2.34173C84.775 2.34173 84.6292 2.94599 84.6292 4.23055C84.6292 5.5151 84.7669 6.14737 85.4352 6.14737C85.9172 6.14737 86.1157 5.85925 86.1602 5.23498H88.8578C88.8497 6.71162 88.1733 7.592 86.788 7.91614H91.0328V0.556957ZM111.439 3.59827C111.512 3.61028 111.585 3.61028 111.645 3.61028C112.322 3.61028 112.678 3.32615 112.678 2.85795C112.678 2.38975 112.395 2.20567 111.759 2.20567C111.666 2.20567 111.56 2.20567 111.435 2.21767V3.60227L111.439 3.59827ZM108.62 7.55198V0.556957H112.451C114.509 0.556957 115.477 0.95713 115.477 2.43777C115.477 3.32215 114.979 3.8944 113.999 4.15451C115.007 4.31858 115.246 4.77078 115.38 5.84324L115.473 6.63558C115.513 6.96373 115.607 7.40792 115.732 7.94815H112.873C112.779 7.592 112.694 7.25585 112.654 6.92371L112.581 6.37947C112.468 5.57913 112.374 5.25899 111.694 5.25899C111.621 5.25899 111.528 5.25899 111.435 5.27099V7.95215H110.329C114.254 9.11666 116.417 11.7338 116.417 15.1913C116.417 15.4034 116.372 15.6675 116.372 15.8756H107.376V15.4554C107.376 13.7707 106.607 12.9263 105.161 12.9263C103.715 12.9263 102.945 13.6626 102.945 14.9272C102.945 16.824 104.12 16.876 106.246 17.2962C109.276 17.8764 110.9 18.2446 111.216 18.3486C113.116 19.085 114.606 19.6652 115.554 20.9298C116.502 22.1943 117 23.9311 117 25.9879C117 30.1337 114.918 32.959 110.888 34.2315C109.284 34.7357 107.372 34.9998 105.161 34.9998C96.9343 34.9998 92.9122 32.5228 92.9122 27.1485C92.9122 26.7803 92.9122 26.3561 92.9568 25.9359H102.629V26.4121C102.629 28.2569 103.399 29.1493 105.023 29.1493C106.469 29.1493 107.328 28.309 107.328 26.9884C107.328 25.2476 106.242 24.8274 104.075 24.4593C96.9343 23.1947 93.2727 21.2979 93.2727 15.9236C93.2727 11.7538 95.7475 8.85655 100.527 7.76407V0.556957H106.141V2.45778H103.362V3.24612H105.946V5.14694H103.362V6.02332H106.234V7.30387C107.072 7.33989 107.862 7.42393 108.608 7.55198H108.62Z" fill="#1a1a1a"></path></g></svg>
