<svg width="79" height="55" viewBox="0 0 79 55" fill="none" xmlns="http://www.w3.org/2000/svg">
  <g clip-path="url(#clip0_sera)">
    <path d="M12.4475 23.0284C10.7787 23.0284 10.216 23.6302 10.216 25.4071V26.7201C10.216 28.497 10.7787 29.0988 12.4475 29.0988H17.1738V30.7925H9.99988V31.066C9.99988 33.0165 10.7466 33.0165 12.2314 33.0165H17.0711C18.7485 33.0165 19.3176 32.4171 19.3176 30.6378V29.194C19.3176 27.4171 18.7485 26.8153 17.0711 26.8153H12.3405V25.1312H19.2213V24.8529C19.2213 23.0284 18.389 23.0284 17.0133 23.0284H12.4475Z" fill="#1a1a1a"/>
    <path d="M42.6492 22.9999V32.9904H44.9706V29.075H46.387C46.5304 29.232 49.836 32.988 49.836 32.988H52.9875C52.9875 32.988 50.005 29.8124 49.3075 29.075H49.7354C51.1304 29.075 51.7808 28.4399 51.7808 27.0817V24.9956C51.7808 23.635 51.1389 22.9999 49.7354 22.9999H42.6492ZM48.8924 25.1003C49.4508 25.1003 49.4786 25.2073 49.4786 25.5308V26.5822C49.4786 26.8985 49.4487 27.008 48.8924 27.008H44.9706V25.105L48.8924 25.1003Z" fill="#1a1a1a"/>
    <path d="M65.1529 30.2595C65.2749 30.5354 66.5393 32.9997 66.5393 32.9997H69.0041L64.28 23.0092H61.8216L57.0975 32.9997H59.558C59.558 32.9997 60.8225 30.5354 60.9444 30.2595C61.2247 30.2571 65.1529 30.2595 65.1529 30.2595ZM61.7168 28.3732L63.0476 25.4474L64.3827 28.3732H61.7168Z" fill="#1a1a1a"/>
    <path d="M26.4808 23.0117V33.0022H35.2229V30.7805H28.8343V29.0893H35.1309V27.0222H28.8343V25.1074H35.2229V23.0189L26.4808 23.0117Z" fill="#1a1a1a"/>
  </g>
  <defs>
    <clipPath id="clip0_sera">
      <rect width="59" height="10" fill="white" transform="translate(9.99988 22.9999)"/>
    </clipPath>
  </defs>
</svg>
